<svg width="813" height="191" viewBox="0 0 813 191" fill="none" xmlns="http://www.w3.org/2000/svg">
<path d="M747 4.26674L36.0001 3.03488e-05L36.0001 8.79999L747 12L747 4.26674Z" fill="#FF9393" fill-opacity="0.5"/>
<path d="M709 26.2667L0.000123119 22L0.00012235 30.7999L709 34L709 26.2667Z" fill="#FF9393" fill-opacity="0.5"/>
<path d="M739 48.2667L36.0002 44L36.0002 52.8L739 56L739 48.2667Z" fill="#FF9393" fill-opacity="0.5"/>
<path d="M813 173.6L71.0001 164L71.0001 183.8L813 191L813 173.6Z" fill="#FF9393" fill-opacity="0.5"/>
<path d="M786 107.822L44 100L44 116.133L786 122L786 107.822Z" fill="#FF9393" fill-opacity="0.5"/>
<path d="M786 139.822L44 132L44 148.133L786 154L786 139.822Z" fill="#FF9393" fill-opacity="0.5"/>
<path d="M810 75.8223L68.0001 68L68.0001 84.1333L810 90L810 75.8223Z" fill="#FF9393" fill-opacity="0.5"/>
</svg>
